# xmcd
#
# Track frame offsets: 
#        150
#        19158
#        32174
#        53423
#        67917
#        87875
#        107118
#        120088
#        140853
#        156848
#        179187
#        194655
#
# Disc length: 2802 seconds
#
# Revision: 3
# Processed by: cddbd v1.5.2PL0 Copyright (c) Steve Scherf et al.
# Submitted via: ExactAudioCopyFreeDBPlugin 1.0
#
DISCID=a40af00c
DTITLE=evie sands - Women In Prison
DYEAR=1998
DGENRE=
TTITLE0=I Ain't Done Yet
TTITLE1=evie sands and lucinda williams - Coo Blues Story
TTITLE2=While I Look At You
TTITLE3=Angel In Your Eyes
TTITLE4=Brooklyn Blues
TTITLE5=Women In Prison
TTITLE6=Fingerprint Me, Baby
TTITLE7=I Want Your Hands
TTITLE8=I Hate You Today
TTITLE9=Always
TTITLE10=Gasoline And Coffee
TTITLE11=Little Girl Cryin'
EXTD=
EXTT0=
EXTT1=
EXTT2=
EXTT3=
EXTT4=
EXTT5=
EXTT6=
EXTT7=
EXTT8=
EXTT9=
EXTT10=
EXTT11=
PLAYORDER=
